<svg width="341" height="341" viewBox="0 0 341 341" fill="none" xmlns="http://www.w3.org/2000/svg">
<g clip-path="url(#clip0_1322_2)">
<path d="M148 1.50028C104.3 7.50028 63.4999 31.0003 36.4999 65.5003C-24.8001 144.1 -6.30011 256.9 76.9999 312.4C95.1999 324.5 119.4 334.2 141.6 338.1C155.6 340.6 181.8 341.1 194.5 339.1C213.6 336.1 230.4 330.8 247.1 322.4C294.3 298.8 326.9 256.2 338.1 203.5C340.2 193.8 340.5 189.9 340.5 170C340.4 150.5 340.1 146.1 338.2 137C322.2 63.3003 264.5 10.3003 190 1.10029C178.9 -0.29971 159.9 -0.0997159 148 1.50028ZM217.1 67.9003C232.7 71.9003 243.4 78.4003 255.2 90.9003C260.9 96.9003 263.9 101.3 267.3 108.2C273 119.8 274.9 126.8 275.7 139.5C276.7 156.2 273.2 169.1 262.8 186.5C247.1 212.9 211.7 247.9 184.4 263.9C172 271.2 162.2 274.2 148.9 274.7C119.8 276 95.3999 264.1 79.1999 240.7C67.9999 224.5 63.0999 199.1 67.4999 180C69.7999 170.4 78.7999 152.8 87.5999 140.9C96.7999 128.3 127.8 97.2003 140.2 88.0003C156.4 75.9003 170.4 68.9003 183.4 66.4003C192.4 64.7003 207.1 65.3003 217.1 67.9003Z" fill="url(#paint0_linear_1322_2)"/>
<path d="M194.5 86.6003C193.4 86.8003 190 87.5003 187 88.1003C168.7 91.8003 152.4 107.5 146.6 126.9C144.6 133.8 144.5 147.7 146.5 155.5C151.3 173.9 166.3 189 185.4 194.5C193.5 196.9 210.2 196.2 218.5 193.2C246.4 183 261.6 151.1 251.7 123.7C248.3 114.4 244.6 108.6 237.9 102C231.3 95.6003 223.4 91.0003 215 88.6003C209.1 87.0003 197.8 85.9003 194.5 86.6003Z" fill="url(#paint1_linear_1322_2)"/>
<path fill-rule="evenodd" clip-rule="evenodd" d="M217.1 67.9003C232.7 71.9003 243.4 78.4003 255.2 90.9003C260.9 96.9003 263.9 101.3 267.3 108.2C273 119.8 274.9 126.8 275.7 139.5C276.7 156.2 273.2 169.1 262.8 186.5C247.1 212.9 211.7 247.9 184.4 263.9C172 271.2 162.2 274.2 148.9 274.7C119.8 276 95.3999 264.1 79.1999 240.7C67.9999 224.5 63.0999 199.1 67.4999 180C69.7999 170.4 78.7999 152.8 87.5999 140.9C96.7999 128.3 127.8 97.2003 140.2 88.0003C156.4 75.9003 170.4 68.9003 183.4 66.4003C192.4 64.7003 207.1 65.3003 217.1 67.9003ZM187 88.1003C190 87.5003 193.4 86.8003 194.5 86.6003C197.8 85.9003 209.1 87.0003 215 88.6003C223.4 91.0003 231.3 95.6003 237.9 102C244.6 108.6 248.3 114.4 251.7 123.7C261.6 151.1 246.4 183 218.5 193.2C210.2 196.2 193.5 196.9 185.4 194.5C166.3 189 151.3 173.9 146.5 155.5C144.5 147.7 144.6 133.8 146.6 126.9C152.4 107.5 168.7 91.8003 187 88.1003Z" fill="white"/>
</g>
<defs>
<linearGradient id="paint0_linear_1322_2" x1="44.5" y1="286.5" x2="295" y2="51.5" gradientUnits="userSpaceOnUse">
<stop stop-color="#273448"/>
<stop offset="1" stop-color="#505D72"/>
</linearGradient>
<linearGradient id="paint1_linear_1322_2" x1="44.5" y1="286.5" x2="295" y2="51.5" gradientUnits="userSpaceOnUse">
<stop stop-color="#273448"/>
<stop offset="1" stop-color="#505D72"/>
</linearGradient>
<clipPath id="clip0_1322_2">
<rect width="341" height="341" fill="white"/>
</clipPath>
</defs>
</svg>
