<svg width="200" height="200" viewBox="0 0 200 200" fill="none" xmlns="http://www.w3.org/2000/svg">
<path fill-rule="evenodd" clip-rule="evenodd" d="M119.334 65.691C126.025 65.691 132.644 65.9728 139.181 66.5212C140.037 66.5921 140.841 66.9348 141.458 67.4919C142.075 68.049 142.467 68.7866 142.568 69.5808C143.251 74.9006 143.714 80.2818 143.945 85.7245L134.644 77.0633C133.864 76.3635 132.821 75.9765 131.738 75.9857C130.655 75.995 129.619 76.3997 128.854 77.1127C128.088 77.8257 127.654 78.7899 127.645 79.7977C127.637 80.8056 128.053 81.7763 128.806 82.5009L145.322 97.8759C146.096 98.5957 147.146 99 148.24 99C149.335 99 150.385 98.5957 151.159 97.8759L167.685 82.5009C168.091 82.149 168.417 81.7247 168.642 81.2532C168.868 80.7817 168.99 80.2727 168.999 79.7566C169.009 79.2405 168.907 78.7279 168.699 78.2492C168.492 77.7706 168.182 77.3359 167.79 76.9709C167.398 76.6059 166.931 76.3181 166.417 76.1248C165.902 75.9315 165.351 75.8366 164.797 75.8457C164.242 75.8548 163.695 75.9677 163.189 76.1778C162.682 76.3879 162.226 76.6908 161.848 77.0684L152.222 86.0218C151.993 80.2213 151.508 74.432 150.768 68.6686C150.442 66.1245 149.186 63.762 147.211 61.9771C145.236 60.1922 142.661 59.0933 139.919 58.8645C126.222 57.7118 112.441 57.7118 98.7434 58.8645C96.0023 59.0944 93.4293 60.1938 91.4552 61.9786C89.4812 63.7634 88.2262 66.1253 87.9002 68.6686C87.5484 71.4134 87.2546 74.1643 87.0191 76.9198C86.9665 77.4274 87.023 77.9396 87.1852 78.4267C87.3475 78.9138 87.6122 79.3659 87.9641 79.7568C88.316 80.1477 88.7479 80.4696 89.2347 80.7036C89.7216 80.9376 90.2536 81.0792 90.7998 81.12C91.346 81.1608 91.8954 81.1 92.4161 80.9413C92.9369 80.7825 93.4184 80.5289 93.8328 80.1952C94.2471 79.8616 94.586 79.4545 94.8297 78.9978C95.0733 78.541 95.2169 78.0437 95.252 77.5348C95.4778 74.8698 95.7642 72.2151 96.1001 69.5808C96.2016 68.7866 96.5936 68.049 97.2103 67.4919C97.827 66.9348 98.6308 66.5921 99.4869 66.5212C106.086 65.9669 112.708 65.6899 119.334 65.691Z" fill="black"/>
<path fill-rule="evenodd" clip-rule="evenodd" d="M58.187 130C59.1986 130 60.1689 130.404 60.8846 131.124L76.1489 146.499C76.8446 147.224 77.2299 148.195 77.2216 149.202C77.2134 150.21 76.8124 151.175 76.105 151.888C75.3975 152.601 74.4403 153.005 73.4394 153.015C72.4385 153.024 71.474 152.637 70.7537 151.937L62.1571 143.276C62.3687 148.672 62.7932 154.057 63.4295 159.419C63.5234 160.214 63.8857 160.951 64.4556 161.508C65.0256 162.066 65.7685 162.408 66.5597 162.479C78.7639 163.59 91.0428 163.59 103.247 162.479C104.038 162.408 104.781 162.066 105.351 161.508C105.921 160.951 106.283 160.214 106.377 159.419C106.688 156.78 106.952 154.13 107.161 151.465C107.193 150.957 107.326 150.459 107.551 150.002C107.777 149.546 108.09 149.139 108.473 148.805C108.856 148.471 109.301 148.218 109.782 148.059C110.263 147.9 110.771 147.839 111.276 147.88C111.781 147.921 112.272 148.063 112.722 148.297C113.172 148.531 113.572 148.852 113.897 149.243C114.222 149.634 114.467 150.086 114.617 150.573C114.767 151.061 114.819 151.573 114.77 152.08C114.551 154.843 114.282 157.595 113.956 160.332C113.655 162.875 112.495 165.237 110.67 167.022C108.846 168.807 106.468 169.906 103.934 170.136C91.2744 171.288 78.5374 171.288 65.8777 170.136C63.3433 169.907 60.964 168.808 59.1385 167.023C57.3131 165.238 56.1523 162.876 55.8508 160.332C55.1688 154.612 54.7209 148.826 54.5071 142.978L45.6102 151.932C45.2607 152.309 44.8392 152.612 44.371 152.822C43.9027 153.033 43.3972 153.145 42.8847 153.155C42.3721 153.164 41.863 153.069 41.3877 152.875C40.9124 152.682 40.4806 152.394 40.1181 152.029C39.7556 151.664 39.4698 151.23 39.2778 150.751C39.0858 150.272 38.9916 149.76 39.0006 149.244C39.0096 148.727 39.1218 148.218 39.3305 147.747C39.5391 147.275 39.8399 146.851 40.215 146.499L55.4894 131.124C56.2052 130.404 57.1754 130 58.187 130Z" fill="black"/>
<g clip-path="url(#clip0_2_3)">
<rect x="89" y="109" width="99" height="60" fill="white"/>
<path d="M183.5 109.5H94.5C91.7386 109.5 89.5 111.739 89.5 114.5V163.5C89.5 166.261 91.7386 168.5 94.5 168.5H183.5C186.261 168.5 188.5 166.261 188.5 163.5V114.5C188.5 111.739 186.261 109.5 183.5 109.5Z" stroke="black" stroke-width="10"/>
<path d="M102 156V122H112L122 134.5L132 122H142V156H132V136.5L122 149L112 136.5V156H102ZM164.5 156L149.5 139.5H159.5V122H169.5V139.5H179.5L164.5 156Z" fill="black"/>
</g>
<g clip-path="url(#clip1_2_3)">
<path d="M15.017 32.313L70.35 28.226C77.147 27.643 78.893 28.036 83.167 31.143L100.83 43.586C103.743 45.726 104.713 46.309 104.713 48.639V116.882C104.713 121.159 103.16 123.689 97.723 124.075L33.467 127.967C29.387 128.16 27.444 127.577 25.307 124.854L12.3 107.94C9.967 104.827 9 102.497 9 99.773V39.113C9 35.616 10.553 32.7 15.017 32.313Z" fill="white"/>
<path fill-rule="evenodd" clip-rule="evenodd" d="M70.35 28.227L15.017 32.314C10.553 32.7 9 35.617 9 39.113V99.773C9 102.496 9.967 104.826 12.3 107.94L25.307 124.853C27.444 127.576 29.387 128.16 33.467 127.966L97.724 124.076C103.157 123.689 104.714 121.159 104.714 116.883V48.64C104.714 46.43 103.841 45.793 101.271 43.907L83.167 31.143C78.894 28.036 77.147 27.643 70.35 28.226V28.227ZM34.92 47.523C29.673 47.876 28.483 47.956 25.503 45.533L17.927 39.507C17.157 38.727 17.544 37.754 19.484 37.56L72.677 33.673C77.144 33.283 79.47 34.84 81.217 36.2L90.34 42.81C90.73 43.007 91.7 44.17 90.533 44.17L35.6 47.477L34.92 47.523ZM28.803 116.3V58.367C28.803 55.837 29.58 54.67 31.906 54.474L95 50.78C97.14 50.587 98.107 51.947 98.107 54.473V112.02C98.107 114.55 97.717 116.69 94.224 116.883L33.847 120.383C30.354 120.576 28.804 119.413 28.804 116.3H28.803ZM88.403 61.473C88.79 63.223 88.403 64.973 86.653 65.173L83.743 65.75V108.523C81.216 109.883 78.89 110.66 76.946 110.66C73.839 110.66 73.063 109.687 70.736 106.773L51.706 76.833V105.8L57.726 107.163C57.726 107.163 57.726 110.663 52.869 110.663L39.479 111.44C39.089 110.66 39.479 108.717 40.836 108.33L44.333 107.36V69.06L39.48 68.667C39.09 66.917 40.06 64.39 42.78 64.194L57.147 63.227L76.947 93.554V66.724L71.9 66.144C71.51 64.001 73.063 62.444 75.003 62.254L88.403 61.473Z" fill="black"/>
</g>
<defs>
<clipPath id="clip0_2_3">
<rect width="104" height="64" fill="white" transform="translate(87 107)"/>
</clipPath>
<clipPath id="clip1_2_3">
<rect width="100" height="100" fill="white" transform="translate(9 28)"/>
</clipPath>
</defs>
</svg>
