<svg width="200" height="200" viewBox="0 0 200 200" fill="none" xmlns="http://www.w3.org/2000/svg">
<path fill-rule="evenodd" clip-rule="evenodd" d="M119.334 65.691C126.025 65.691 132.644 65.9728 139.181 66.5212C140.037 66.5921 140.841 66.9348 141.458 67.4919C142.075 68.049 142.467 68.7866 142.568 69.5808C143.251 74.9006 143.714 80.2818 143.945 85.7245L134.644 77.0633C133.864 76.3635 132.821 75.9765 131.738 75.9857C130.655 75.995 129.619 76.3997 128.854 77.1127C128.088 77.8257 127.654 78.7899 127.645 79.7977C127.637 80.8056 128.053 81.7763 128.806 82.5009L145.322 97.8759C146.096 98.5957 147.146 99 148.24 99C149.335 99 150.385 98.5957 151.159 97.8759L167.685 82.5009C168.091 82.149 168.417 81.7247 168.642 81.2532C168.868 80.7817 168.99 80.2727 168.999 79.7566C169.009 79.2405 168.907 78.7279 168.699 78.2492C168.492 77.7706 168.182 77.3359 167.79 76.9709C167.398 76.6059 166.931 76.3181 166.417 76.1248C165.902 75.9315 165.351 75.8366 164.797 75.8457C164.242 75.8548 163.695 75.9677 163.189 76.1778C162.682 76.3879 162.226 76.6908 161.848 77.0684L152.222 86.0218C151.993 80.2213 151.508 74.432 150.768 68.6686C150.442 66.1245 149.186 63.762 147.211 61.9771C145.236 60.1922 142.661 59.0933 139.919 58.8645C126.222 57.7118 112.441 57.7118 98.7434 58.8645C96.0023 59.0944 93.4293 60.1938 91.4552 61.9786C89.4812 63.7634 88.2262 66.1253 87.9002 68.6686C87.5484 71.4134 87.2546 74.1643 87.0191 76.9198C86.9665 77.4274 87.023 77.9396 87.1852 78.4267C87.3475 78.9138 87.6122 79.3659 87.9641 79.7568C88.316 80.1477 88.7479 80.4696 89.2347 80.7036C89.7216 80.9376 90.2536 81.0792 90.7998 81.12C91.346 81.1608 91.8954 81.1 92.4161 80.9413C92.9369 80.7825 93.4184 80.5289 93.8328 80.1952C94.2471 79.8616 94.586 79.4545 94.8297 78.9978C95.0733 78.541 95.2169 78.0437 95.252 77.5348C95.4778 74.8698 95.7642 72.2151 96.1001 69.5808C96.2016 68.7866 96.5936 68.049 97.2103 67.4919C97.827 66.9348 98.6308 66.5921 99.4869 66.5212C106.086 65.9669 112.708 65.6899 119.334 65.691Z" fill="black"/>
<path fill-rule="evenodd" clip-rule="evenodd" d="M58.187 129C59.1986 129 60.1689 129.404 60.8846 130.124L76.1489 145.499C76.8446 146.224 77.2299 147.195 77.2216 148.202C77.2134 149.21 76.8124 150.175 76.105 150.888C75.3975 151.601 74.4403 152.005 73.4394 152.015C72.4385 152.024 71.474 151.637 70.7537 150.937L62.1571 142.276C62.3687 147.672 62.7932 153.057 63.4295 158.419C63.5234 159.214 63.8857 159.951 64.4556 160.508C65.0256 161.066 65.7685 161.408 66.5597 161.479C78.7639 162.59 91.0428 162.59 103.247 161.479C104.038 161.408 104.781 161.066 105.351 160.508C105.921 159.951 106.283 159.214 106.377 158.419C106.688 155.78 106.952 153.13 107.161 150.465C107.193 149.957 107.326 149.459 107.551 149.002C107.777 148.546 108.09 148.139 108.473 147.805C108.856 147.471 109.301 147.218 109.782 147.059C110.263 146.9 110.771 146.839 111.276 146.88C111.781 146.921 112.272 147.063 112.722 147.297C113.172 147.531 113.572 147.852 113.897 148.243C114.222 148.634 114.467 149.086 114.617 149.573C114.767 150.061 114.819 150.573 114.77 151.08C114.551 153.843 114.282 156.595 113.956 159.332C113.655 161.875 112.495 164.237 110.67 166.022C108.846 167.807 106.468 168.906 103.934 169.136C91.2744 170.288 78.5374 170.288 65.8777 169.136C63.3433 168.907 60.964 167.808 59.1385 166.023C57.3131 164.238 56.1523 161.876 55.8508 159.332C55.1688 153.612 54.7209 147.826 54.5071 141.978L45.6102 150.932C45.2607 151.309 44.8392 151.612 44.371 151.822C43.9027 152.033 43.3972 152.145 42.8847 152.155C42.3721 152.164 41.863 152.069 41.3877 151.875C40.9124 151.682 40.4806 151.394 40.1181 151.029C39.7556 150.664 39.4698 150.23 39.2778 149.751C39.0858 149.272 38.9916 148.76 39.0006 148.244C39.0096 147.727 39.1218 147.218 39.3305 146.747C39.5391 146.275 39.8399 145.851 40.215 145.499L55.4894 130.124C56.2052 129.404 57.1754 129 58.187 129Z" fill="#F8BF08"/>
<g clip-path="url(#clip0_2_9)">
<rect x="89" y="109" width="99" height="60" fill="white"/>
<path d="M183.5 109.5H94.5C91.7386 109.5 89.5 111.739 89.5 114.5V163.5C89.5 166.261 91.7386 168.5 94.5 168.5H183.5C186.261 168.5 188.5 166.261 188.5 163.5V114.5C188.5 111.739 186.261 109.5 183.5 109.5Z" stroke="black" stroke-width="10"/>
<path d="M102 156V122H112L122 134.5L132 122H142V156H132V136.5L122 149L112 136.5V156H102ZM164.5 156L149.5 139.5H159.5V122H169.5V139.5H179.5L164.5 156Z" fill="black"/>
</g>
<g clip-path="url(#clip1_2_9)">
<path d="M89.5938 122H25.4062C21.3328 122 18 118.686 18 114.636V21.3636C18 17.3136 21.3328 14 25.4062 14H69.8438L97 41V114.636C97 118.686 93.6672 122 89.5938 122Z" fill="#F8BF08"/>
<path d="M69.8438 14L97 41H69.8438V14Z" fill="#F59307"/>
<path d="M32.8125 56.3409V90.7045H82.1875V56.3409H32.8125ZM76.0156 84.5682H38.9844V62.4773H76.0156V84.5682Z" fill="#FDFFFF"/>
</g>
<defs>
<clipPath id="clip0_2_9">
<rect width="104" height="64" fill="white" transform="translate(87 107)"/>
</clipPath>
<clipPath id="clip1_2_9">
<rect width="79" height="108" fill="white" transform="translate(18 14)"/>
</clipPath>
</defs>
</svg>
