<svg width="512" height="320" viewBox="0 0 512 320" fill="none" xmlns="http://www.w3.org/2000/svg">
<g clip-path="url(#clip0_1295_2)">
<path d="M475.2 0C495.36 0 512 16.64 511.68 36.8V283.2C511.68 303.36 495.36 320 474.88 320H36.8C16.64 320 0 303.36 0 282.88V36.8C0 16.64 16.64 0 36.8 0H475.2ZM288 256V64H224L176 128L128 64H64V256H128V160L176 221.44L224 160V256H288ZM383.68 272L464 160H416V64H352V160H304L383.68 272Z" fill="#0A5341"/>
<path d="M383.68 272L464 160H416V64H352V160H304L383.68 272Z" fill="white"/>
<path d="M288 256V64H224L176 128L128 64H64V256H128V160L176 221.44L224 160V256H288Z" fill="white"/>
</g>
<defs>
<clipPath id="clip0_1295_2">
<rect width="512" height="320" fill="white"/>
</clipPath>
</defs>
</svg>